<?xml version="1.0" standalone="no"?>
<!DOCTYPE svg PUBLIC "-//W3C//DTD SVG 1.1//EN" "http://www.w3.org/Graphics/SVG/1.1/DTD/svg11.dtd" >
<svg xmlns="http://www.w3.org/2000/svg">
<metadata>
Created by FontForge 20120731 at Wed Mar 22 18:10:13 2017
 By admin
</metadata>
<defs>
<font id="iconfont" horiz-adv-x="1024" >
  <font-face 
    font-family="iconfont"
    font-weight="500"
    font-stretch="normal"
    units-per-em="1024"
    panose-1="2 0 6 3 0 0 0 0 0 0"
    ascent="896"
    descent="-128"
    x-height="792"
    bbox="0 -129 1365 896"
    underline-thickness="0"
    underline-position="0"
    unicode-range="U+0078-E996"
  />
<missing-glyph 
 />
    <glyph glyph-name=".notdef" 
 />
    <glyph glyph-name=".notdef" 
 />
    <glyph glyph-name=".null" horiz-adv-x="0" 
 />
    <glyph glyph-name="nonmarkingreturn" horiz-adv-x="341" 
 />
    <glyph glyph-name="x" unicode="x" horiz-adv-x="1001" 
d="M281 543q-27 -1 -53 -1h-83q-18 0 -36.5 -6t-32.5 -18.5t-23 -32t-9 -45.5v-76h912v41q0 16 -0.5 30t-0.5 18q0 13 -5 29t-17 29.5t-31.5 22.5t-49.5 9h-133v-97h-438v97zM955 310v-52q0 -23 0.5 -52t0.5 -58t-10.5 -47.5t-26 -30t-33 -16t-31.5 -4.5q-14 -1 -29.5 -0.5
t-29.5 0.5h-32l-45 128h-439l-44 -128h-29h-34q-20 0 -45 1q-25 0 -41 9.5t-25.5 23t-13.5 29.5t-4 30v167h911zM163 247q-12 0 -21 -8.5t-9 -21.5t9 -21.5t21 -8.5q13 0 22 8.5t9 21.5t-9 21.5t-22 8.5zM316 123q-8 -26 -14 -48q-5 -19 -10.5 -37t-7.5 -25t-3 -15t1 -14.5
t9.5 -10.5t21.5 -4h37h67h81h80h64h36q23 0 34 12t2 38q-5 13 -9.5 30.5t-9.5 34.5q-5 19 -11 39h-368zM336 498v228q0 11 2.5 23t10 21.5t20.5 15.5t34 6h188q31 0 51.5 -14.5t20.5 -52.5v-227h-327z" />
    <glyph glyph-name="magnifier" unicode="&#xe635;" 
d="M773 161h1l-153 150q46 55 48 124q3 41 -12.5 81t-44.5 70q-52 55 -127 65q-14 2 -28 2q-74 0 -130 -44q-67 -49 -80 -130q-14 -74 25 -139q26 -44 69 -72q40 -25 87 -31q14 -2 29 -2q67 0 122 38l152 -149l3 -3v0q8 -6 18 -6q12 0 20.5 8t8.5 20q0 10 -8 18zM618 365
q-18 -38 -53.5 -63.5t-77.5 -32.5q-40 -6 -79 4q-38 11 -68.5 36t-46.5 60q-19 38 -17 83t25 82q20 34 53.5 56.5t72.5 28.5h4q3 1 6 1q9 1 19 1q41 0 77 -16q66 -30 93 -98q29 -73 -8 -142z" />
    <glyph glyph-name="learn" unicode="&#xe674;" 
d="M934 -128h-699q-18 0 -36 11.5t-30 27t-22 32.5t-15 27.5t-5 11.5l1 73l34 -2q21 0 36.5 8t22 17.5t10.5 23t4 18v8.5q0 20 -7.5 35.5t-16.5 22.5t-21.5 11.5t-17 5t-7.5 0.5v0h-37l1 144h34q20 0 34.5 7.5t21.5 18t11.5 20.5t5.5 18l1 7q0 22 -7.5 38t-18.5 23
t-21.5 11.5t-18.5 4.5l-7 1h-35l-2 144l35 2q21 0 36.5 7.5t22.5 18t10.5 21.5t4.5 18v8q0 19 -7.5 33t-18 21.5t-21 12t-18.5 5.5l-7 1h-37v71q0 15 11 25.5t26 10.5h658q15 0 25.5 -10.5t10.5 -25.5l73 -2q14 0 23 -9.5t11 -18.5l3 -9v-914q0 -12 -8.5 -20.5t-17.5 -11.5
l-8 -2v0zM785 640h-475v-293h475v293zM896 813l-38 13v-808q0 -15 -10.5 -25.5t-25.5 -10.5l-623 1q0 -4 1.5 -8t3.5 -7t5 -6t6 -5.5t6 -4l6 -3l5 -2.5t3.5 -1.5l1.5 -0.5h621q18 0 27 8.5t10 17.5l1 8v834zM401 566h293q7 0 12.5 -5t5.5 -12.5t-5.5 -13t-12.5 -5.5h-293
q-7 0 -12.5 5.5t-5.5 13t5.5 12.5t12.5 5v0zM401 457h293q7 0 12.5 -5.5t5.5 -13t-5.5 -13t-12.5 -5.5h-293q-7 0 -12.5 5.5t-5.5 13t5.5 13t12.5 5.5v0zM200 713q0 -15 -10.5 -26t-25.5 -11h-73q-15 0 -26 11t-11 26t11 25.5t26 10.5h73q15 0 25.5 -10.5t10.5 -25.5v0z
M91 457h73q15 0 25.5 -11t10.5 -26t-10.5 -25.5t-25.5 -10.5h-73q-15 0 -26 10.5t-11 25.5t11 26t26 11v0zM91 164h73q15 0 25.5 -10.5t10.5 -25.5t-10.5 -26t-25.5 -11h-73q-15 0 -26 11t-11 26t11 25.5t26 10.5v0z" />
    <glyph glyph-name="wechat" unicode="&#xe63b;" 
d="M500 531q18 0 28.5 10.5t10.5 28t-10.5 28t-28.5 10.5t-32 -11t-14 -27.5t14 -27.5t32 -11zM284 608q-18 0 -32 -11t-14 -27.5t14 -27.5t32 -11t28.5 10.5t10.5 28t-10.5 28t-28.5 10.5zM962 284q0 91 -74 159.5t-178 77.5v4q-21 98 -114 163t-211 65q-88 0 -162.5 -37
t-117.5 -100.5t-43 -138.5q0 -125 121 -214l-28 -83q-3 -9 4 -15q4 -3 10 -3q3 0 6 1l104 52l12 -3q60 -12 94 -12q14 0 30 1q6 1 9 6q29 -71 100.5 -116t161.5 -45q32 0 90 14l80 -43q4 -2 7 -2q5 0 9 3q7 6 5 15l-21 68q106 83 106 183zM412 229q-13 -1 -27 -1
q-32 0 -88 12l-18 3q-4 1 -9 -1l-77 -39l20 61q3 10 -5 16q-118 82 -118 197q0 102 86.5 175t208.5 73q107 0 192 -58t105 -145q-113 -2 -193 -71.5t-80 -166.5q0 -27 8 -55q-3 1 -5 0zM831 117q-7 -6 -5 -15l14 -44l-55 30q-3 1 -7 1h-3q-59 -15 -89 -15q-103 0 -176 61.5
t-73 148.5t73 148.5t176 61.5q101 0 174.5 -62.5t73.5 -147.5q0 -90 -103 -167zM601 384q-12 0 -21.5 -9.5t-9.5 -21.5t9.5 -21.5t21.5 -9.5q17 0 27.5 9.5t10.5 21.5t-10.5 21.5t-27.5 9.5zM770 384q-11 0 -20.5 -9.5t-9.5 -21.5t9.5 -21.5t20.5 -9.5q17 0 28 9.5t11 21.5
t-11 21.5t-28 9.5z" />
    <glyph glyph-name="integral" unicode="&#xe65b;" horiz-adv-x="1071" 
d="M500 896q-10 0 -22 -0.5t-19.5 -8.5t-7.5 -19.5t9 -19t20 -7.5v0q12 1 20 1q105 0 200 -39.5t163.5 -106t109.5 -158.5t41 -193q0 -126 -61 -234.5t-165 -176.5q-10 -7 -12 -18t4 -20q8 -12 23 -12q9 0 16 5q116 75 183.5 195.5t67.5 260.5q0 112 -45 214t-121.5 176
t-182 117.5t-221.5 43.5zM526 368h3h1h126q6 0 6 6v133q0 4 -7 6h-127q-6 0 -6 -8v-131v-1q-1 -3 0 -4t4 -1zM483.5 806q-98.5 0 -188 -37t-154 -99.5t-103 -149t-38.5 -181.5t38.5 -181.5t103 -149t154 -99.5t188 -37t188 37t154 99.5t103 149t38.5 181.5t-38.5 181.5
t-103 149t-154 99.5t-188 37zM393 263q-3 4 -8 10v-166v-1q-3 -28 -36 -31v0h-1q-35 3 -35 32v119q-10 -25 -22 -43v0q-14 -19 -33 -19q-8 0 -17 4l-1 1q-29 15 -11 49v0q49 78 78 182h-51q-32 0 -32 36v0q3 34 36 36v0h53v46q-9 -2 -21 -3h-1h-21q-6 -1 -10 -1
q-31 0 -36 27v1v0q0 35 38 43v0h18q79 9 118 18h1h8q29 0 37 -28l1 -1v-1q2 -33 -33 -40q-11 -3 -18 -5v0h-9v-56h35q20 -2 27 -19v80q-2 27 10 40t36 12h187q31 1 45 -14q12 -13 11 -38v-190q1 -24 -10 -37q-10 -10 -30 -10h-7h-201h-3v0q-18 0 -27 10q-12 12 -11 37v75
q-7 -18 -28 -18h-34v-9q7 -9 12 -16q44 -55 51 -64v-1q18 -32 -5 -54v-1q-11 -8 -22 -8q-15 0 -28 16v0zM568 230q-40 -73 -103 -140v0q-16 -13 -31 -13v0q-15 0 -29 10v0v1q-24 26 4 53q46 46 90 125v0q14 23 34 23q9 0 19 -5h1q32 -21 15 -54zM738 93v0h-1q-7 -3 -14 -3v0
q-18 0 -30 21q-48 79 -83 125q-10 14 -8 26q2 13 18 24v0q25 15 52 -7l1 -1v0q47 -60 85 -136v0q10 -31 -20 -49z" />
    <glyph glyph-name="wedding" unicode="&#xe645;" 
d="M959 572l-84 107v0v0v0v0q-31 40 -82.5 64t-106.5 24q-64 0 -119 -32t-95 -91q-10 -14 -25 -37q-28 -43 -42.5 -63.5t-39 -51t-43.5 -47t-46.5 -33t-58.5 -26.5q12 -16 28 -32t42.5 -37.5t62 -34.5t73.5 -13q49 0 90 14t66.5 33.5t45.5 46t29 46t15 39.5q3 10 12.5 15
t19.5 2t15 -12t1 -19q-30 -102 -108.5 -159t-185.5 -57q-46 0 -89.5 16.5t-71.5 37t-52 46t-33.5 38.5t-12.5 18v1q-37 -6 -78 -6q-14 0 -21.5 -11.5t-1.5 -24.5q4 -9 12 -23t35.5 -46t61 -58.5t91 -51.5t123.5 -34l48 -105q7 -14 23 -14q6 0 11 2q9 4 13 14t-1 19l-36 79
h18q27 0 53 4l47 -104q7 -14 23 -14q6 0 11 2q10 4 13.5 14t-0.5 19l-43 95q58 18 108 58t85.5 93t60.5 109.5t40 117.5l86 23q13 3 17.5 16t-4.5 24v0v0zM717 557q-17 0 -29 11.5t-12 28.5t12 29t29 12t29 -12t12 -29t-12 -28.5t-29 -11.5v0v0zM243 550q4 2 10.5 6.5
t22.5 17.5t28.5 26t22.5 31.5t10 34.5q0 19 -14 32.5t-33 13.5t-32.5 -13.5t-14.5 -32.5q0 19 -13.5 32.5t-32.5 13.5t-33 -13.5t-14 -32.5q0 -26 23.5 -55t46.5 -45l23 -16v0v0zM243 550z" />
    <glyph glyph-name="dress" unicode="&#xe7a1;" 
d="M646 466v142q37 63 45 123v101h-45v-90q-5 0 -14 -1t-32.5 -7t-41 -14.5t-32 -26t-14.5 -40.5q0 23 -14 40.5t-33.5 26t-39.5 14.5t-33 7l-14 1v90h-45v-101q3 -27 14.5 -57.5t20.5 -48.5l10 -17v-142l-269 -440q73 -80 334 -89q69 -2 69 0h34t79 4t107.5 12.5
t102.5 27.5t80 45zM646 466z" />
    <glyph glyph-name="close" unicode="&#xe609;" 
d="M905 712l-65 65l-328 -328l-328 328l-65 -65l328 -328l-328 -328l65 -65l328 328l327 -328l66 65l-328 328z" />
    <glyph glyph-name="more" unicode="&#xe636;" 
d="M513 406zM910 -63h-268q-22 0 -37 15.5t-15 37.5v21q0 22 15 38t37 16h268q21 0 36 -16t15 -38v-21q0 -22 -15 -37.5t-36 -15.5zM910 192h-268q-22 0 -37 15.5t-15 37.5v22q0 22 15 37.5t37 15.5h268q21 0 36 -15.5t15 -37.5v-22q0 -22 -15 -37.5t-36 -15.5zM910 447
h-268q-22 0 -37 15.5t-15 37.5v22q0 22 15 37.5t37 15.5h268q21 0 36 -15.5t15 -37.5v-22q0 -22 -15 -37.5t-36 -15.5zM910 702h-268q-22 0 -37 16t-15 38v21q0 22 15 37.5t37 15.5h268q21 0 36 -15.5t15 -37.5v-21q0 -22 -15 -38t-36 -16zM415 -63h-267q-22 0 -37 15.5
t-15 37.5v277q0 22 15 37.5t37 15.5h267q22 0 37 -15.5t15 -37.5v-277q0 -22 -15 -37.5t-37 -15.5zM415 447h-267q-22 0 -37 15.5t-15 37.5v277q0 22 15 37.5t37 15.5h267q22 0 37 -15.5t15 -37.5v-277q0 -22 -15 -37.5t-37 -15.5z" />
    <glyph glyph-name="like" unicode="&#xe608;" 
d="M926 455q-25 30 -76 30h-151q-52 0 -69 7q35 63 35 137t-28 125q-30 52 -73 52h-4q-38 6 -60 -16q-19 -19 -16 -55q4 -45 -11.5 -87t-37 -69.5t-53 -52.5t-47.5 -34.5t-32 -17.5q-7 7 -18 7h-174q-10 0 -18 -8t-8 -18v-488q0 -11 8 -19t18 -8h176q9 0 20 7q2 -5 7 -7
q314 2 420 2q22 0 42 11t34.5 26.5t29 43.5t23.5 51t19.5 61t16.5 61.5t15 62.5q12 58 21 86q19 74 -9 110v0zM259 -7h-123v435h123v-435zM882 359q-10 -35 -22 -89q-8 -36 -13.5 -59.5t-15.5 -60.5t-20 -60.5t-22.5 -48t-26.5 -36.5t-29 -12q-62 0 -241 -1t-180 -1v428
q5 0 9 2q9 4 28 14t56.5 38t67 62.5t50 89t14.5 114.5v12q2 2 18 2h7v0q6 0 13 -7t12 -18q23 -38 21.5 -104t-30.5 -111q-15 -23 -5 -48q20 -35 122 -35h153q25 0 32 -9q16 -12 2 -62v0z" />
    <glyph glyph-name="star-empty" unicode="&#xe62d;" 
d="M785 -56q-6 0 -11 3l-262 136l-262 -136q-13 -7 -25 2t-10 23l50 289l-212 204q-11 10 -6 24t19 17l293 42l131 262q7 14 22 14t21 -14l132 -262l293 -42q14 -3 19 -17t-6 -24l-212 -204l50 -289q2 -14 -10 -23q-6 -5 -14 -5v0v0zM121 466l187 -180q9 -9 6 -21l-44 -254
l231 120q11 6 22 0l230 -120l-44 254q-2 12 7 21l187 180l-258 37q-12 1 -18 13l-115 230l-115 -230q-6 -12 -18 -13zM121 466z" />
    <glyph glyph-name="video2" unicode="&#xe60b;" horiz-adv-x="1418" 
d="M1059 772q0 25 -18.5 43.5t-43.5 18.5h-873q-25 0 -43.5 -18.5t-18.5 -43.5v-748q0 -26 18.5 -44t43.5 -18h873q25 0 43.5 18t18.5 44v218l249 -249v810l-249 -249v218zM436 180v436l343 -218z" />
    <glyph glyph-name="star-full" unicode="&#xe688;" 
d="M512 810l138 -280l310 -45l-224 -218l53 -308l-277 145l-277 -145l53 308l-224 218l310 45zM789 -63q-6 0 -10 3l-267 140l-267 -140q-11 -7 -22 1t-9 21l51 297l-216 211q-9 9 -5 21.5t17 14.5l298 43l134 271q5 11 19 11t19 -11l134 -271l298 -43q13 -2 17 -14.5
t-5 -21.5l-216 -211l51 -297q2 -13 -9 -21q-5 -4 -12 -4zM512 125q5 0 10 -2l238 -125l-45 265q-2 11 6 19l193 188l-267 39q-11 2 -16 12l-119 241l-119 -241q-5 -10 -16 -12l-267 -39l193 -188q8 -8 6 -19l-45 -265l238 125q5 2 10 2z" />
    <glyph glyph-name="order" unicode="&#xe60d;" 
d="M312 90v-152h583v893h-766v-710h183v-31zM276 -62l-147 151h147v-151zM727 660l-147 -251h116v-56h-136v-77h136v-56h-136v-111h-75v111h-140v56h140v77h-140v56h118l-145 251h85l102 -196q8 -16 19 -41h1q8 21 20 43l102 194h80z" />
    <glyph glyph-name="empty" unicode="&#xe646;" horiz-adv-x="1179" 
d="M1104 896h-1030q-30 0 -52 -22t-22 -52v-709q0 -30 22 -52t52 -22h56q6 -16 19 -31q4 -3 9 -4q107 -28 122 -70q6 -18 -5 -33q-4 -6 -3.5 -13t6.5 -11.5t13.5 -4t11.5 6.5q23 29 11 65q-20 60 -142 93q-9 10 -9 19v1q0 11 13 20v0.5t1 0.5q3 2 7 4l2 2l12 4q14 3 35 3
q47 0 108 -18l21 -9q2 -2 6 -4q14 -8 26 -16l1 -0.5l1 -0.5q37 -27 63.5 -51t36.5 -39.5t17 -29t4.5 -18t-0.5 -7.5v0v0q-3 -6 -1 -13t9 -11q4 -2 8 -2q11 0 16 10q2 4 3.5 11t-0.5 22t-10 31.5t-29 41t-53 51.5h316q-32 -27 -53 -51.5t-29.5 -41t-10.5 -31.5t-0.5 -21.5
t4.5 -11.5q5 -10 16 -10q4 0 8 2q7 3 9 10t-1 14q-1 1 -1 2.5t1 9t4 15t11.5 20.5t21 27t34.5 32.5t50 38.5q13 9 28 17q4 3 5 3l22 11q61 18 108 18q20 0 35 -4q8 -3 11 -4q1 -1 2 -1q5 -3 8 -5l1 -1q12 -9 12 -20v-1q0 -9 -8 -19q-122 -33 -142 -93q-12 -36 10 -65
q5 -6 12.5 -6.5t13 4t6.5 12t-4 12.5q0 1 -2 4.5t-3.5 11.5t1.5 16q14 42 122 71q5 1 8 4q14 15 19 31q31 1 52 22.5t21 51.5v709q0 30 -22 52t-52 22v0zM190 554h158q22 -75 -8 -160l-2 -5q-9 -25 -13 -41.5t-0.5 -53t19.5 -80.5q26 -64 0 -102v0q-1 0 -2.5 0.5t-2.5 0.5
q-31 12 -61 16q-4 1 -6 1q-14 1 -26 1h-3h-3q-10 0 -20 -1q-1 0 -3 -0.5t-3 -0.5l-1.5 -0.5t-2.5 -0.5q15 68 -9 103q-16 25 -17 85t17 116q13 37 -11 122v0zM891 214q17 44 20 80.5t-0.5 53t-12.5 41.5l-2 5q-30 85 -8 159h158q-24 -84 -11 -121q18 -56 17 -116.5
t-18 -84.5q-23 -35 -9 -103l-4 1h-3q-10 2 -24 2h-1h-2q-49 0 -99 -20q-26 39 -1 103v0zM1142 113q0 -15 -10.5 -26.5t-26.5 -11.5q-4 10 -11 19l-2 2q-1 0 -1 0.5v0.5l-1 1q-3 3 -8 7q-1 1 -2 1.5t-2 1.5q-4 2 -8 5l-1.5 1l-1.5 1q-1 0 -1 1h-1q-20 67 -1 95
q22 34 23.5 104t-19.5 129q-9 29 16 110h6q8 0 13 5t5 12.5t-5 12.5t-13 5h-231q-7 0 -12.5 -5t-5.5 -12q0 -11 10 -16q-21 -83 11 -174l2 -5q8 -22 11 -36t0 -45t-17 -68q-30 -78 1 -132q-18 -9 -36 -21v0h-410q-1 0 -4 2q-13 9 -29 18q-1 0 -4 2q32 53 2 131
q-15 37 -18 68t0 45t11 36l2 5q32 91 11 174q10 5 10 16q0 7 -5 12.5t-13 5.5h-231q-7 0 -12 -5.5t-5 -13t5 -12.5t12 -5h7q25 -81 15 -110q-20 -58 -18.5 -129t23.5 -104q18 -28 -2 -95l-0.5 -0.5l-0.5 -0.5q-1 0 -2 -1t-2 -1q-4 -3 -7 -5q-1 0 -2 -1t-2 -1q-5 -4 -8 -8
l-2 -1l-1 -1l-1 -1q-2 -2 -6 -8v-1q-3 -6 -5 -11h-56q-16 0 -27.5 11.5t-11.5 27.5v708q0 16 11.5 27t27.5 11h1029q16 0 27 -11t11 -27v-709zM551 637q0 7 -5 12t-13 5q-60 0 -136 56q-10 7 -13 9q-7 4 -14 2t-11 -8.5t-2 -13.5t8 -11q4 -2 11 -7q85 -62 157 -62q8 0 13 5
t5 13v0zM807 719q-4 -3 -13 -9q-76 -56 -137 -56q-7 0 -12 -5t-5 -12.5t5 -12.5t12 -5q73 0 158 62q9 6 10 7q7 4 8.5 11.5t-2 13.5t-11 8t-13.5 -2v0zM716 234l-120 54q-7 3 -15 0l-106 -54q-7 -4 -9.5 -11t1 -13.5t10.5 -9t14 1.5l99 50l112 -51q3 -1 7 -1q12 0 17 10
q3 7 0 14t-10 10v0zM716 234z" />
    <glyph glyph-name="open" unicode="&#xe6a3;" 
d="M922 -107h-820q-42 0 -72 30t-30 72v474q0 42 30 71.5t72 29.5h820q42 0 72 -29.5t30 -71.5v-474q0 -42 -30 -72t-72 -30zM239 332q-42 0 -72 -35t-30 -84t30 -83.5t72 -34.5t72 34.5t30 83.5t-30 84t-72 35zM504.5 303q-5.5 12 -15.5 18.5t-24 9.5q-11 1 -30 1h-61v-234
h35v69h28q36 0 58 23q7 8 11 34.5t4 43.5q0 23 -5.5 35zM683 132h-104v68h101v31h-101v70h104v31h-136v-234h136v34zM886 332h-31v-179l-103 179h-35v-234h33v172l103 -172h33v234zM438 200h-29v101h28q18 0 24 -2q10 -3 16.5 -11.5t6.5 -20.5t-3 -32.5t-8 -25.5
q-10 -9 -35 -9zM239 126q-28 0 -48 25t-20 60t20 59.5t48 24.5t48 -24.5t20 -59.5t-20 -60t-48 -25zM819 570l-250 185q-19 -16 -42 -16q-35 0 -55 28l-267 -197h-34l290 221q-3 8 -3 16q0 28 20 48t48.5 20t48.5 -20t20 -48q0 -17 -9 -33l267 -204h-34z" />
    <glyph glyph-name="info" unicode="&#xe638;" 
d="M831 523q-1 -14 -3 -28q-18 -123 -105.5 -203t-204.5 -80h-50l-10 -10q27 -49 73 -78t100 -29h51l99 -104q10 -10 24 -10q7 0 13 2q20 9 20 31v85q70 15 116 74t46 138q0 80 -48.5 140t-120.5 72zM780 502q4 24 4 44q0 118 -78 202t-188 84h-229q-109 0 -187 -84
t-78 -202q0 -106 62.5 -185t156.5 -97v-121q0 -26 25 -36q6 -2 14 -2q17 0 28 12l137 143h71q99 0 173 68.5t89 173.5zM216 635h372q8 0 13.5 -6t5.5 -14.5t-5.5 -14t-13.5 -5.5h-372q-8 0 -13.5 5.5t-5.5 14t5.5 14.5t13.5 6zM439 449h-223q-8 0 -13.5 6t-5.5 14t5.5 14
t13.5 6h223q8 0 13.5 -6t5.5 -14t-5.5 -14t-13.5 -6z" />
    <glyph glyph-name="suo" unicode="&#xe692;" 
d="M858 492q-21 22 -51 22l-524 1q7 138 68 205q35 39 72 53.5t99 14.5q176 0 244 -174q3 -10 12.5 -14t19.5 -0.5t14 13t0 19.5q-39 101 -113 153.5t-177 52.5q-73 0 -119.5 -19t-88.5 -65q-74 -81 -81 -239h-14q-31 0 -53 -22t-22 -51v-400q0 -30 21.5 -51t51.5 -21h590
q30 0 51 21t21 51v400q1 29 -21 50zM830 42q0 -9 -7 -15.5t-16 -6.5h-590q-9 0 -16 6.5t-7 15.5v400q0 9 7.5 16t17.5 7l588 -1q9 0 16 -7q7 -6 6 -15zM512 347q-10 0 -17.5 -7t-7.5 -18v-160q0 -10 7.5 -17.5t17.5 -7.5t17.5 7.5t7.5 17.5v160q0 11 -7.5 18t-17.5 7z" />
    <glyph glyph-name="copydown" unicode="&#xe659;" 
d="M886 571l-374 -374l-374 374h748z" />
    <glyph glyph-name="copytop" unicode="&#xe62c;" 
d="M138 199l374 374l374 -375z" />
    <glyph glyph-name="play" unicode="&#xe65f;" 
d="M511.5 831q-91.5 0 -174 -35.5t-142.5 -95.5t-95.5 -143t-35.5 -174t35.5 -174t95.5 -143t142.5 -95.5t174 -35.5t174 35.5t142.5 95.5t95.5 143t35.5 174t-35.5 174t-95.5 143t-142.5 95.5t-174 35.5zM511.5 -5q-105.5 0 -195 52t-141.5 141.5t-52 194.5t52 194.5
t141.5 141.5t195 52t195 -52t141 -141.5t51.5 -194.5t-51.5 -194.5t-141 -141.5t-195 -52zM381 196l307 176l-307 176v-352z" />
    <glyph glyph-name="arrow-down" unicode="&#xe600;" 
d="M493 137l-451 450q-7 7 -7 18t7.5 19t18.5 8t19 -8l432 -432l432 432q8 8 19 8t18.5 -8t7.5 -19t-7 -18l-450 -450q-8 -8 -20 -8t-19 8z" />
    <glyph glyph-name="arrow-left" unicode="&#xe625;" 
d="M744 362l-450 -450q-7 -8 -18 -8t-19 8t-8 19t8 18l432 432l-432 432q-8 8 -8 19t8 19t19 8t18 -8l450 -450q8 -8 8 -20q0 -11 -8 -19z" />
    <glyph glyph-name="arrow-right" unicode="&#xe626;" 
d="M258 403l450 451q8 7 19 7t19 -7.5t8 -18.5t-8 -19l-432 -432l432 -432q8 -8 8 -19t-8 -18.5t-19 -7.5t-19 7l-450 450q-8 8 -7 20q-1 12 7 19z" />
    <glyph glyph-name="arrow-up" unicode="&#xe627;" 
d="M493 626l-451 -450q-7 -8 -7 -19t7.5 -18.5t18.5 -7.5t19 8l432 432l432 -432q8 -8 19 -8t18.5 7.5t7.5 18.5t-7 19l-450 450q-8 8 -20 8t-19 -8z" />
    <glyph glyph-name="norm" unicode="&#xe7a0;" 
d="M512 831q-91 0 -173.5 -35.5t-142.5 -95.5t-95.5 -142.5t-35.5 -173.5t35.5 -173.5t95.5 -142.5t142.5 -95.5t173.5 -35.5t173.5 35.5t142.5 95.5t95.5 142.5t35.5 173.5t-35.5 173.5t-95.5 142.5t-142.5 95.5t-173.5 35.5zM512 -7q-106 0 -196 52.5t-142.5 142.5
t-52.5 196t52.5 196t142.5 142.5t196 52.5t196 -52.5t142.5 -142.5t52.5 -196t-52.5 -196t-142.5 -142.5t-196 -52.5zM549 635q-54 0 -97.5 -17t-74.5 -48q-32 -33 -49 -80t-17 -106q0 -64 18 -111.5t49 -78.5q32 -31 75 -46t95 -15q28 0 51.5 4.5t42.5 10.5q24 8 38.5 14.5
t32.5 14.5v76h-5q-35 -32 -76 -48t-87 -16q-34 0 -64.5 11.5t-52.5 35.5q-22 23 -36 60t-14 88q0 48 12.5 85.5t35.5 61.5q23 25 52.5 37t65.5 12q45 0 84.5 -15.5t79.5 -48.5h5v76q-48 24 -87 33.5t-77 9.5z" />
    <glyph glyph-name="marketing" unicode="&#xe61b;" 
d="M101 45h238v382l-65 45l-173 -147v-280zM395 45h237v379l-115 -96l-122 67v-350zM688 469v-424h237v422l-101 133zM141 431l129 108l246 -150l293 276l2 3l50 -50l79 223l-228 -73l55 -55l-1 -0.5t-1 -1.5l-257 -242l-244 149l-165 -137q-10 -9 -11 -22t7.5 -23.5
t21.5 -11.5t24 7zM920 1h-820q-13 0 -22.5 -9t-9.5 -22.5t9.5 -23t22.5 -9.5h820q13 0 22.5 9.5t9.5 23t-9.5 22.5t-22.5 9z" />
    <glyph glyph-name="admin" unicode="&#xe67e;" 
d="M229 606q0 67 38 123q36 54 96 83q30 15 68 19q36 4 75 -13q100 -45 134 -152q26 -82 -19 -158q-41 -68 -112 -101q-55 -25 -111 -10q-97 25 -144 107q-25 46 -25 102v0zM490 342q7 0 15 -1q17 -4 12 -19q-4 -15 -12 -27q-26 -45 -36 -76q-23 -66 -14 -130q1 -11 5 -30
t4 -22q1 -7 2 -12q0 -15 -14 -18q-12 -2 -25 -3q-45 -1 -116 5q-17 2 -49 4.5t-40 3.5q-15 1 -44.5 4t-44.5 4q-25 2 -53 11q-16 5 -21 13.5t-1 25.5q4 19 17 57q29 89 38 112q30 78 112 94q19 3 51 4q6 0 98 2q0 -1 116 -2v0zM686 -64v37q0 3 -3 4q-5 2 -29 12q-1 1 -6 3v0
q-18 -19 -26 -28q-13 -13 -30 -4q-2 1 -5 4l-31 31q-11 11 -7 24q2 5 7 10q5 6 26 26q2 1 1 4q-4 9 -14 33q-2 2 -4 2h-36q-18 0 -24 18l-2 10v44q0 16 13 25q5 3 11 3h12.5h13.5h12q2 0 4 2q1 4 5 14t7 15q0 2 3 7q-1 0 -1.5 0.5l-0.5 0.5q-11 11 -26 24q-18 17 -1 35
l32 32q17 17 34 0q15 -16 25 -27q2 -1 4 0t33 14q3 1 3 4v11v13v11q-1 19 18 25q5 1 10 1h44q16 0 24 -13q3 -5 3 -11v-37q0 -3 3 -4q6 -3 18 -8t17 -7l1 -1l1 2q8 9 25 26q13 14 29 5q2 -1 5 -4l16.5 -16.5l14.5 -14.5q11 -11 7 -25q-2 -4 -7 -10q-5 -5 -14 -13.5
t-12 -11.5q-1 -2 -1 -4q9 -19 14 -33q2 -3 5 -3h17.5h17.5q18 1 24 -18q2 -4 2 -10v-43q0 -17 -13 -25q-5 -3 -11 -3h-12.5h-13.5h-12q-2 0 -4 -3q-8 -20 -11 -28q-1 -1 -2 -3.5t-2 -4.5q2 0 2 -1q5 -4 13.5 -12t12.5 -12q7 -7 8 -16.5t-6 -16.5q-15 -17 -34 -35
q-16 -15 -33 2t-25 26q-2 1 -4 1q-7 -3 -19 -8t-14 -6q-3 -1 -3 -5v-17.5v-17.5zM840 144q0 43 -30.5 74t-73.5 31q-44 0 -74.5 -31t-30.5 -74t30.5 -74t74 -31t74 31t30.5 74v0zM840 144z" />
    <glyph glyph-name="home" unicode="&#xe601;" 
d="M511 838q-91 0 -174.5 -35.5t-143.5 -95.5t-95.5 -143.5t-35.5 -174.5q0 -157 97 -279q81 -102 204 -145q71 -25 148 -25t148 25q124 43 205 147q96 122 96 277q0 91 -35.5 174.5t-95.5 143.5t-143.5 95.5t-174.5 35.5zM825 136l-164 63q-32 13 -44 25t0 50
q1 6 25.5 41.5t46 81.5t21.5 84q0 101 -58 173t-140 72t-140.5 -72t-58.5 -173q0 -29 13 -64.5t26.5 -60t30 -50t17.5 -26.5q6 -14 5.5 -31t-6.5 -24q-5 -5 -18 -11.5t-23 -9.5l-11 -4l-149 -66q-90 111 -90 255q0 110 54 203t146.5 147t202.5 54t202.5 -54t146.5 -147
t54 -203q0 -143 -89 -253z" />
    <glyph glyph-name="dot" unicode="&#xe681;" 
d="M384 384q0 -53 37.5 -90.5t90.5 -37.5t90.5 37.5t37.5 90.5t-37.5 90.5t-90.5 37.5t-90.5 -37.5t-37.5 -90.5z" />
    <glyph glyph-name="video" unicode="&#xe62b;" 
d="M412 246l226 114q16 7 16 25t-16 25l-226 114q-14 7 -27.5 -1.5t-13.5 -23.5v-228q0 -15 13.5 -23.5t27.5 -1.5v0zM880 726h-735q-35 0 -59.5 -25.5t-24.5 -60.5v-510q0 -36 24.5 -61t59.5 -25h735q35 0 59.5 25.5t24.5 60.5v510q0 36 -24.5 61t-59.5 25v0zM230 130
q0 -12 -8 -20.5t-20 -8.5h-56q-12 0 -20.5 8.5t-8.5 20.5v56q0 12 8.5 20.5t20.5 8.5h56q12 0 20 -8.5t8 -20.5v-56zM230 357q0 -12 -8 -20.5t-20 -8.5h-56q-12 0 -20.5 8.5t-8.5 20.5v56q0 12 8.5 20.5t20.5 8.5h56q12 0 20 -8.5t8 -20.5v-56zM230 584q0 -12 -8 -20.5
t-20 -8.5h-56q-12 0 -20.5 8.5t-8.5 20.5v56q0 12 8.5 20.5t20.5 8.5h56q12 0 20 -8.5t8 -20.5v-56zM738 101h-451v568h451v-568zM908 130q0 -12 -8.5 -20.5t-20.5 -8.5h-56q-12 0 -20 8.5t-8 20.5v56q0 12 8 20.5t20 8.5h56q12 0 20.5 -8.5t8.5 -20.5v-56zM908 357
q0 -12 -8.5 -20.5t-20.5 -8.5h-56q-12 0 -20 8.5t-8 20.5v56q0 12 8 20.5t20 8.5h56q12 0 20.5 -8.5t8.5 -20.5v-56zM908 584q0 -12 -8.5 -20.5t-20.5 -8.5h-56q-12 0 -20 8.5t-8 20.5v56q0 12 8 20.5t20 8.5h56q12 0 20.5 -8.5t8.5 -20.5v-56zM908 584z" />
    <glyph glyph-name="cart" unicode="&#xe996;" 
d="M352 -64q-27 0 -46 19t-19 45.5t19 46t46 19.5t46 -19.5t19 -46t-19 -45.5t-46 -19v0zM352 -64zM798 -64q-26 0 -45.5 19t-19.5 45.5t19.5 46t46 19.5t45.5 -19.5t19 -46t-19 -45.5t-46 -19v0zM798 -64zM344 95q-35 0 -62 24.5t-32 59.5l-54 381l-30 178q-2 11 -10.5 19
t-18.5 8h-41q-14 0 -23.5 9.5t-9.5 23.5t9.5 23.5t23.5 9.5h41q35 0 62.5 -24t31.5 -59l31 -178l54 -383q1 -10 9.5 -18t18.5 -8h518q13 0 23 -9.5t10 -23t-10 -23.5t-23 -10h-518zM344 95zM383 223q-12 0 -22 9t-10 21q-1 14 7.5 24.5t22.5 11.5l433 32q11 0 19.5 7.5
t10.5 17.5l50 288q2 18 -8 29q-6 6 -14 6h-553q-13 0 -23 10t-10 23.5t10 23t23 9.5h553q38 0 64 -28q29 -34 23 -83l-50 -287q-4 -34 -31 -58t-62 -24zM383 223z" />
    <glyph glyph-name="makeup" unicode="&#xe622;" 
d="M488 814q-50 -35 -86 -85l2 1l201 -225v-1h217v0v0l192 215l9 9q-61 84 -154 125.5t-194.5 31.5t-186.5 -71zM798 554h-51l44 130l-24 7l-49 -137l-47 138l-24 -8l35 -130h-52l-159 178q21 22 47 41q104 73 228 60.5t209 -103.5zM769 486h-103q-21 0 -36 -15t-15 -36
l-51 -512q0 -21 15 -36t36 -15h205q21 0 36 15t15 36l-51 512q0 21 -15 36t-36 15zM385 819q-2 3 -4.5 8.5t-11 18.5t-17 23t-21 18.5t-23.5 8.5q-13 0 -39.5 -11t-59.5 -32t-62.5 -48t-49 -64t-19.5 -75v-231h307v384zM334 787v-301h-205v186q6 39 44.5 81.5t78 67
t56.5 24.5q14 0 20 -14.5t6 -28.5v-15zM1 -77q0 -21 15 -36t36 -15h358q22 0 37 15t15 36v487h-461v-487zM78 294q0 6 3.5 9.5t8.5 3.5h26q5 0 9 -3.5t4 -9.5v-307q0 -5 -4 -9t-9 -4h-26q-5 0 -8.5 4t-3.5 9v307zM282 794q2 -2 4.5 -5.5t5.5 -13.5t2 -19t-10 -20t-27 -19
q-29 -13 -55 -19.5t-37 -6.5h-11q4 -1 11.5 -3t27.5 -3.5t38 1.5t40 17.5t37 38.5q9 19 3.5 30.5t-17.5 16.5z" />
    <glyph glyph-name="photography" unicode="&#xe63c;" 
d="M511.5 511q-84.5 0 -144.5 -60t-60 -144.5t60 -144.5t144.5 -60t144.5 60t60 144.5t-60 144.5t-144.5 60zM511 434q-52 0 -89.5 -37t-37.5 -90l-26 1q0 63 45 107.5t108 44.5v-26zM972 664h-141q-63 9 -80 55l-9 48q-17 52 -98 51h-266q-38 1 -64 -13t-33 -38l-5 -26v0
l-3 -16q-16 -53 -96 -61h-126q-21 0 -36 -14.5t-15 -36.5v-613q0 -22 15 -37t36 -15h921q21 0 36 15t15 37v613q0 22 -15 36.5t-36 14.5zM511.5 51q-105.5 0 -180.5 75t-75 180.5t75 180.5t180.5 75t180.5 -75t75 -180.5t-75 -180.5t-180.5 -75zM895 485q-21 0 -36 15
t-15 36.5t15 36.5t36 15t36 -15t15 -36.5t-15 -36.5t-36 -15z" />
    <glyph glyph-name="star-half" unicode="&#xe605;" 
d="M990 492.5q-4 12.5 -17 14.5l-305 44l-136 276q-6 12 -19 12t-19 -12l-137 -276l-304 -44q-13 -2 -17 -14.5t5 -22.5l220 -214l-52 -304q-2 -13 9 -20.5t22 -1.5l273 143l272 -143q5 -3 10 -3q7 0 13 4q10 8 8 21l-52 304l220 214q10 10 6 22.5zM726 278q-8 -7 -6 -19
l47 -271l-244 128q-5 2 -10 2h-0.5h-0.5v650l1 1l122 -247q5 -10 16 -12l273 -39z" />
    <glyph glyph-name="heart" unicode="&#xe637;" 
d="M512 -63q-28 0 -48 20l-376 376l-7 7l-9 10q-8 7 -13 17q-59 78 -59 174q0 120 85 205t205 85q65 0 123 -27.5t99 -77.5q41 50 99 77.5t123 27.5q120 0 205 -85t85 -205q0 -97 -60 -175q-5 -10 -12 -17l-10 -10q-3 -3 -8 -7l-374 -375q-20 -20 -48 -20zM290 756
q-89 0 -152.5 -63t-63.5 -152q0 -73 46 -132l4 -4l2 -5l14 -14l372 -372l370 371q5 4 7 6l14 17q47 59 47 133q0 89 -63.5 152t-152.5 63q-59 0 -110 -30.5t-79 -83.5l-33 -61l-33 61q-28 53 -79 83.5t-110 30.5z" />
    <glyph glyph-name="solid-heart" unicode="&#xe639;" 
d="M512 -58q-14 0 -24 10l-405 405q-4 5 -7 7l-10 11q-5 5 -8 11q-58 75 -58 167q0 113 80 193t193 80q76 0 140 -39.5t99 -105.5q35 66 99 105.5t140 39.5q113 0 193 -80t80 -193q0 -93 -59 -168q-2 -6 -7 -10l-11 -11q-4 -4 -7 -8l-404 -404q-10 -10 -24 -10z" />
    <glyph glyph-name="book" unicode="&#xe662;" 
d="M873 104l-359 -106l-360 106q-16 0 -20 16l-64 13v-9q0 -34 24.5 -59t59.5 -25l360 -106l359 106q35 0 60 25t25 59v6l-64 -7q-1 -8 -7 -13.5t-14 -5.5v0zM873 834l-359 -106l-360 106q-35 0 -59.5 -25t-24.5 -60v-519q0 -35 24.5 -60t59.5 -25l360 -106l359 106
q35 0 60 25t25 60v519q0 35 -25 60t-60 25v0zM154 208q-9 0 -15 6.5t-6 15.5v519q0 9 6.5 15t14.5 6l325 -93v-561zM894 230q0 -9 -6.5 -15t-14.5 -6l-324 -93v561l325 93q8 0 14 -6t6 -15v-519zM824 574q-2 9 -9.5 13.5t-16.5 2.5l-163 -44q-8 -2 -12.5 -9.5t-2.5 -16.5
l5 -20q3 -8 10 -12.5t16 -2.5l163 44q9 2 13 9.5t2 15.5zM824 384q-2 8 -9.5 12.5t-16.5 2.5l-163 -43q-8 -3 -12.5 -10.5t-2.5 -15.5l5 -20q3 -9 10 -13t16 -2l163 43q9 3 13 10t2 16zM214 526l160 -42q8 -2 15.5 2t10.5 13l5 20q2 8 -2.5 15.5t-12.5 9.5l-160 42
q-8 3 -15.5 -1.5t-10.5 -12.5l-5 -21q-2 -8 2.5 -15t12.5 -10v0zM214 340l160 -43q8 -2 15.5 2.5t10.5 12.5l5 20q2 9 -2.5 16t-12.5 10l-160 42q-8 3 -15.5 -1.5t-10.5 -12.5l-5 -21q-2 -8 2.5 -16t12.5 -9v0z" />
    <glyph glyph-name="direct" unicode="&#xe786;" 
d="M512 213l299 -216q1 -1 4.5 -3.5t13 -7t19 -6t23 3t25.5 16.5t16.5 25t2 23t-6.5 18.5t-8 12.5l-4 5l-213 300zM555 683q-37 46 -74.5 65.5t-96.5 19.5q-106 0 -181 -75t-75 -181q0 -59 19.5 -96.5t65.5 -74.5zM597 640l-341 -341q94 -43 128 -43q106 0 181 75t75 181
q0 33 -43 128z" />
    <glyph glyph-name="digital" unicode="&#xe603;" horiz-adv-x="1365" 
d="M1331 -128h-324q-14 0 -24 10t-10 24v615v0q0 14 10 24t24 10h324v0q14 0 24 -10t10 -24v0v-615q0 -14 -10 -24t-24 -10zM1169 -111h1q14 0 24 10t10 24t-10 24t-24 10h-1q-14 0 -23.5 -10t-9.5 -24t9.5 -24t23.5 -10v0zM1229 538h-120q-7 0 -12 -5t-5 -12.5t5 -12.5
t12 -5h120q7 0 12 5t5 12.5t-5 12.5t-12 5zM1331 486h-324v-512h324v512zM939 77h-905q-14 0 -24 10t-10 24v751q0 14 10 24t24 10h1229v0q14 0 24 -10t10 -24v0v-273h-358v-512zM188 -94h341v137h239v-137h154q7 0 12 -5t5 -12t-5 -12t-12 -5h-734q-7 0 -12 5t-5 12t5 12
t12 5z" />
    <glyph glyph-name="tv" unicode="&#xe630;" horiz-adv-x="1025" 
d="M922 647q-41 40 -96 40h-178l49 84q6 11 3 23.5t-14 20.5q-11 7 -23.5 3t-19.5 -16l-67 -115h-140l-66 115q-8 12 -20 16t-24 -3q-11 -8 -14 -20.5t4 -23.5l48 -84h-165q-55 0 -96 -40q-40 -40 -40 -97v-464q0 -55 40 -96q41 -41 96 -41h628q58 0 97 40t39 98v463
q-2 57 -41 97zM899 86q0 -31 -21 -52.5t-52 -21.5h-628q-31 0 -52 21.5t-21 52.5v464q0 31 21 52.5t52 21.5h628q31 0 52 -21.5t21 -52.5v-464zM716 355l-303 176q-16 10 -32.5 0.5t-16.5 -29.5v-352q0 -19 16 -28q7 -5 17 -5q9 0 16 5l303 176q16 9 16 28q0 20 -16 29z" />
    <glyph glyph-name="run" unicode="&#xe613;" 
d="M853 896h-684q-44 0 -74.5 -30t-30.5 -72v-894q0 -12 8.5 -20t20.5 -8h4h5q10 0 18 6l117 91l117 -91q18 -14 36 0l122 94l118 -91q17 -14 35 0l117 90l120 -92q8 -6 19 -6q4 -1 8 -1q12 0 21.5 8.5t9.5 19.5v894q0 42 -32 72t-75 30zM224 687q0 8 5.5 13t12.5 5h380
q7 0 12.5 -5t5.5 -13v-28q0 -8 -5.5 -13t-12.5 -5h-380q-7 0 -12.5 5t-5.5 13v28zM800 499q0 -8 -5.5 -13t-13.5 -5h-538q-8 0 -13.5 5t-5.5 13v28q0 8 5.5 13t13.5 5h538q8 0 13.5 -5t5.5 -13v-28v0zM800 339q0 -8 -5.5 -13t-13.5 -5h-538q-8 0 -13.5 5t-5.5 13v28
q0 8 5.5 13t13.5 5h538q8 0 13.5 -5t5.5 -13v-28v0zM800 179q0 -8 -5.5 -13t-13.5 -5h-538q-8 0 -13.5 5t-5.5 13v28q0 8 5.5 13t13.5 5h538q8 0 13.5 -5t5.5 -13v-28v0z" />
  </font>
</defs>
</svg>
